<svg xmlns="http://www.w3.org/2000/svg" xmlns:xlink="http://www.w3.org/1999/xlink" width="250" zoomAndPan="magnify" viewBox="0 0 187.5 112.499997" height="150" preserveAspectRatio="xMidYMid meet" version="1.0"><defs><g><g id="id1"/><g id="id2"/></g><clipPath id="id3"><path d="M 48.046875 26 L 139.292969 26 L 139.292969 62.523438 L 48.046875 62.523438 Z M 48.046875 26 " clip-rule="nonzero"/></clipPath><clipPath id="id4"><path d="M 66 8.34375 L 111 8.34375 L 111 53 L 66 53 Z M 66 8.34375 " clip-rule="nonzero"/></clipPath></defs><g clip-path="url(#id3)"><path fill="rgb(15.289307%, 43.528748%, 81.17981%)" d="M 139.289062 26.550781 L 113.976562 26.765625 L 120.121094 33.300781 L 85.261719 54.355469 L 79.527344 45.886719 L 48.046875 62.503906 L 76.582031 51.464844 L 83.226562 62.503906 L 124.269531 40.617188 L 126.816406 48.628906 L 139.289062 26.550781 " fill-opacity="1" fill-rule="nonzero"/></g><g clip-path="url(#id4)"><path fill="rgb(100%, 100%, 100%)" d="M 94.777344 46.980469 L 101.234375 43.078125 L 101.234375 17.875 L 94.777344 17.875 Z M 104.273438 8.359375 L 104.273438 41.246094 L 110.730469 37.34375 L 110.730469 8.359375 Z M 85.28125 51.902344 L 85.671875 52.476562 L 91.738281 48.8125 L 91.738281 25.265625 L 85.28125 25.265625 Z M 66.292969 51.292969 L 72.75 47.886719 L 72.75 24.695312 L 66.292969 24.695312 Z M 75.789062 46.28125 L 79.980469 44.070312 L 82.246094 47.414062 L 82.246094 16.703125 L 75.789062 16.703125 L 75.789062 46.28125 " fill-opacity="1" fill-rule="nonzero"/></g><g fill="rgb(100%, 100%, 100%)" fill-opacity="1"><g transform="translate(39.283451, 86.594879)"><g><path d="M 13.328125 -8.125 C 14.222656 -7.84375 14.921875 -7.367188 15.421875 -6.703125 C 15.929688 -6.046875 16.1875 -5.234375 16.1875 -4.265625 C 16.1875 -2.890625 15.65625 -1.832031 14.59375 -1.09375 C 13.53125 -0.363281 11.976562 0 9.9375 0 L 1.859375 0 L 1.859375 -15.625 L 9.484375 -15.625 C 11.390625 -15.625 12.851562 -15.257812 13.875 -14.53125 C 14.894531 -13.800781 15.40625 -12.8125 15.40625 -11.5625 C 15.40625 -10.800781 15.222656 -10.125 14.859375 -9.53125 C 14.492188 -8.9375 13.984375 -8.46875 13.328125 -8.125 Z M 5.453125 -12.90625 L 5.453125 -9.21875 L 9.046875 -9.21875 C 9.929688 -9.21875 10.601562 -9.375 11.0625 -9.6875 C 11.53125 -10 11.765625 -10.460938 11.765625 -11.078125 C 11.765625 -11.679688 11.53125 -12.132812 11.0625 -12.4375 C 10.601562 -12.75 9.929688 -12.90625 9.046875 -12.90625 Z M 9.671875 -2.71875 C 10.617188 -2.71875 11.332031 -2.875 11.8125 -3.1875 C 12.300781 -3.5 12.546875 -3.984375 12.546875 -4.640625 C 12.546875 -5.941406 11.585938 -6.59375 9.671875 -6.59375 L 5.453125 -6.59375 L 5.453125 -2.71875 Z M 9.671875 -2.71875 "/></g></g></g><g fill="rgb(100%, 100%, 100%)" fill-opacity="1"><g transform="translate(57.669704, 86.594879)"><g><path d="M 13.953125 -2.90625 L 13.953125 0 L 1.859375 0 L 1.859375 -15.625 L 13.671875 -15.625 L 13.671875 -12.734375 L 5.453125 -12.734375 L 5.453125 -9.328125 L 12.703125 -9.328125 L 12.703125 -6.515625 L 5.453125 -6.515625 L 5.453125 -2.90625 Z M 13.953125 -2.90625 "/></g></g></g><g fill="rgb(100%, 100%, 100%)" fill-opacity="1"><g transform="translate(73.958572, 86.594879)"><g><path d="M 12.140625 -3.34375 L 4.890625 -3.34375 L 3.5 0 L -0.203125 0 L 6.765625 -15.625 L 10.34375 -15.625 L 17.328125 0 L 13.53125 0 Z M 11 -6.09375 L 8.53125 -12.078125 L 6.046875 -6.09375 Z M 11 -6.09375 "/></g></g></g><g fill="rgb(100%, 100%, 100%)" fill-opacity="1"><g transform="translate(92.367137, 86.594879)"><g><path d="M 9.328125 0.265625 C 7.734375 0.265625 6.289062 -0.078125 5 -0.765625 C 3.71875 -1.460938 2.707031 -2.425781 1.96875 -3.65625 C 1.238281 -4.882812 0.875 -6.269531 0.875 -7.8125 C 0.875 -9.363281 1.238281 -10.753906 1.96875 -11.984375 C 2.707031 -13.210938 3.71875 -14.171875 5 -14.859375 C 6.289062 -15.546875 7.742188 -15.890625 9.359375 -15.890625 C 10.710938 -15.890625 11.9375 -15.648438 13.03125 -15.171875 C 14.125 -14.703125 15.039062 -14.019531 15.78125 -13.125 L 13.46875 -10.984375 C 12.40625 -12.203125 11.09375 -12.8125 9.53125 -12.8125 C 8.5625 -12.8125 7.695312 -12.597656 6.9375 -12.171875 C 6.1875 -11.753906 5.597656 -11.164062 5.171875 -10.40625 C 4.742188 -9.644531 4.53125 -8.78125 4.53125 -7.8125 C 4.53125 -6.84375 4.742188 -5.976562 5.171875 -5.21875 C 5.597656 -4.46875 6.1875 -3.878906 6.9375 -3.453125 C 7.695312 -3.023438 8.5625 -2.8125 9.53125 -2.8125 C 11.09375 -2.8125 12.40625 -3.429688 13.46875 -4.671875 L 15.78125 -2.515625 C 15.039062 -1.609375 14.117188 -0.914062 13.015625 -0.4375 C 11.910156 0.03125 10.679688 0.265625 9.328125 0.265625 Z M 9.328125 0.265625 "/></g></g></g><g fill="rgb(100%, 100%, 100%)" fill-opacity="1"><g transform="translate(110.039388, 86.594879)"><g><path d="M 9.421875 0.265625 C 7.796875 0.265625 6.332031 -0.0820312 5.03125 -0.78125 C 3.726562 -1.476562 2.707031 -2.441406 1.96875 -3.671875 C 1.238281 -4.898438 0.875 -6.28125 0.875 -7.8125 C 0.875 -9.34375 1.238281 -10.722656 1.96875 -11.953125 C 2.707031 -13.179688 3.726562 -14.144531 5.03125 -14.84375 C 6.332031 -15.539062 7.796875 -15.890625 9.421875 -15.890625 C 11.046875 -15.890625 12.503906 -15.539062 13.796875 -14.84375 C 15.085938 -14.144531 16.101562 -13.179688 16.84375 -11.953125 C 17.59375 -10.722656 17.96875 -9.34375 17.96875 -7.8125 C 17.96875 -6.28125 17.59375 -4.898438 16.84375 -3.671875 C 16.101562 -2.441406 15.085938 -1.476562 13.796875 -0.78125 C 12.503906 -0.0820312 11.046875 0.265625 9.421875 0.265625 Z M 9.421875 -2.8125 C 10.347656 -2.8125 11.179688 -3.023438 11.921875 -3.453125 C 12.671875 -3.878906 13.253906 -4.46875 13.671875 -5.21875 C 14.097656 -5.976562 14.3125 -6.84375 14.3125 -7.8125 C 14.3125 -8.78125 14.097656 -9.644531 13.671875 -10.40625 C 13.253906 -11.164062 12.671875 -11.753906 11.921875 -12.171875 C 11.179688 -12.597656 10.347656 -12.8125 9.421875 -12.8125 C 8.492188 -12.8125 7.660156 -12.597656 6.921875 -12.171875 C 6.179688 -11.753906 5.597656 -11.164062 5.171875 -10.40625 C 4.742188 -9.644531 4.53125 -8.78125 4.53125 -7.8125 C 4.53125 -6.84375 4.742188 -5.976562 5.171875 -5.21875 C 5.597656 -4.46875 6.179688 -3.878906 6.921875 -3.453125 C 7.660156 -3.023438 8.492188 -2.8125 9.421875 -2.8125 Z M 9.421875 -2.8125 "/></g></g></g><g fill="rgb(100%, 100%, 100%)" fill-opacity="1"><g transform="translate(130.188332, 86.594879)"><g><path d="M 16.1875 -15.625 L 16.1875 0 L 13.21875 0 L 5.421875 -9.484375 L 5.421875 0 L 1.859375 0 L 1.859375 -15.625 L 4.84375 -15.625 L 12.609375 -6.140625 L 12.609375 -15.625 Z M 16.1875 -15.625 "/></g></g></g><g fill="rgb(15.289307%, 43.528748%, 81.17981%)" fill-opacity="1"><g transform="translate(50.994818, 101.570247)"><g><path d="M 2.359375 -5.890625 L 0.046875 -5.890625 L 0.046875 -7.25 L 6.359375 -7.25 L 6.359375 -5.890625 L 4.046875 -5.890625 L 4.046875 0 L 2.359375 0 Z M 2.359375 -5.890625 "/></g></g></g><g fill="rgb(15.289307%, 43.528748%, 81.17981%)" fill-opacity="1"><g transform="translate(63.271652, 101.570247)"><g><path d="M 5.484375 0 L 4.078125 -2.015625 L 2.53125 -2.015625 L 2.53125 0 L 0.859375 0 L 0.859375 -7.25 L 4 -7.25 C 4.644531 -7.25 5.203125 -7.140625 5.671875 -6.921875 C 6.140625 -6.710938 6.5 -6.410156 6.75 -6.015625 C 7.007812 -5.617188 7.140625 -5.15625 7.140625 -4.625 C 7.140625 -4.082031 7.007812 -3.613281 6.75 -3.21875 C 6.5 -2.832031 6.132812 -2.535156 5.65625 -2.328125 L 7.28125 0 Z M 5.453125 -4.625 C 5.453125 -5.03125 5.316406 -5.34375 5.046875 -5.5625 C 4.785156 -5.78125 4.40625 -5.890625 3.90625 -5.890625 L 2.53125 -5.890625 L 2.53125 -3.359375 L 3.90625 -3.359375 C 4.40625 -3.359375 4.785156 -3.46875 5.046875 -3.6875 C 5.316406 -3.90625 5.453125 -4.21875 5.453125 -4.625 Z M 5.453125 -4.625 "/></g></g></g><g fill="rgb(15.289307%, 43.528748%, 81.17981%)" fill-opacity="1"><g transform="translate(76.759952, 101.570247)"><g><path d="M 5.640625 -1.546875 L 2.265625 -1.546875 L 1.625 0 L -0.09375 0 L 3.140625 -7.25 L 4.796875 -7.25 L 8.03125 0 L 6.28125 0 Z M 5.109375 -2.828125 L 3.953125 -5.609375 L 2.8125 -2.828125 Z M 5.109375 -2.828125 "/></g></g></g><g fill="rgb(15.289307%, 43.528748%, 81.17981%)" fill-opacity="1"><g transform="translate(90.569232, 101.570247)"><g><path d="M 0.859375 -7.25 L 4.15625 -7.25 C 4.9375 -7.25 5.628906 -7.097656 6.234375 -6.796875 C 6.835938 -6.492188 7.304688 -6.070312 7.640625 -5.53125 C 7.984375 -4.988281 8.15625 -4.351562 8.15625 -3.625 C 8.15625 -2.894531 7.984375 -2.257812 7.640625 -1.71875 C 7.304688 -1.175781 6.835938 -0.753906 6.234375 -0.453125 C 5.628906 -0.148438 4.9375 0 4.15625 0 L 0.859375 0 Z M 4.078125 -1.375 C 4.796875 -1.375 5.367188 -1.578125 5.796875 -1.984375 C 6.234375 -2.390625 6.453125 -2.9375 6.453125 -3.625 C 6.453125 -4.3125 6.234375 -4.859375 5.796875 -5.265625 C 5.367188 -5.671875 4.796875 -5.875 4.078125 -5.875 L 2.53125 -5.875 L 2.53125 -1.375 Z M 4.078125 -1.375 "/></g></g></g><g fill="rgb(15.289307%, 43.528748%, 81.17981%)" fill-opacity="1"><g transform="translate(104.999779, 101.570247)"><g><path d="M 0.859375 -7.25 L 2.53125 -7.25 L 2.53125 0 L 0.859375 0 Z M 0.859375 -7.25 "/></g></g></g><g fill="rgb(15.289307%, 43.528748%, 81.17981%)" fill-opacity="1"><g transform="translate(114.273851, 101.570247)"><g><path d="M 7.515625 -7.25 L 7.515625 0 L 6.125 0 L 2.515625 -4.40625 L 2.515625 0 L 0.859375 0 L 0.859375 -7.25 L 2.25 -7.25 L 5.859375 -2.84375 L 5.859375 -7.25 Z M 7.515625 -7.25 "/></g></g></g><g fill="rgb(15.289307%, 43.528748%, 81.17981%)" fill-opacity="1"><g transform="translate(128.51802, 101.570247)"><g><path d="M 5.765625 -3.734375 L 7.296875 -3.734375 L 7.296875 -0.796875 C 6.898438 -0.503906 6.441406 -0.273438 5.921875 -0.109375 C 5.410156 0.046875 4.890625 0.125 4.359375 0.125 C 3.609375 0.125 2.929688 -0.0351562 2.328125 -0.359375 C 1.722656 -0.679688 1.25 -1.125 0.90625 -1.6875 C 0.570312 -2.257812 0.40625 -2.90625 0.40625 -3.625 C 0.40625 -4.34375 0.570312 -4.984375 0.90625 -5.546875 C 1.25 -6.117188 1.722656 -6.566406 2.328125 -6.890625 C 2.941406 -7.210938 3.628906 -7.375 4.390625 -7.375 C 5.023438 -7.375 5.601562 -7.265625 6.125 -7.046875 C 6.644531 -6.835938 7.078125 -6.53125 7.421875 -6.125 L 6.34375 -5.125 C 5.832031 -5.675781 5.207031 -5.953125 4.46875 -5.953125 C 4.007812 -5.953125 3.597656 -5.851562 3.234375 -5.65625 C 2.878906 -5.457031 2.601562 -5.179688 2.40625 -4.828125 C 2.207031 -4.484375 2.109375 -4.082031 2.109375 -3.625 C 2.109375 -3.175781 2.207031 -2.773438 2.40625 -2.421875 C 2.601562 -2.066406 2.878906 -1.789062 3.234375 -1.59375 C 3.585938 -1.40625 3.992188 -1.3125 4.453125 -1.3125 C 4.929688 -1.3125 5.367188 -1.410156 5.765625 -1.609375 Z M 5.765625 -3.734375 "/></g></g></g></svg>